<svg xmlns="http://www.w3.org/2000/svg" viewBox="0 0 640 280" fill="none">
  <defs>
    <filter id="shPe"><feDropShadow dx="0" dy="2" stdDeviation="3" flood-color="#94a3b8" flood-opacity="0.12"/></filter>
  </defs>
  <rect width="640" height="280" rx="12" fill="#ffffff"/>
  <rect width="640" height="280" rx="12" fill="none" stroke="#e2e8f0" stroke-width="1"/>

  <!-- /work command -->
  <g filter="url(#shPe)" transform="translate(20, 108)">
    <rect x="0" y="0" width="130" height="56" rx="8" fill="#FFF7ED" stroke="#FDBA74" stroke-width="1"/>
    <text x="65" y="24" text-anchor="middle" font-family="'SF Mono', monospace" font-size="13" font-weight="700" fill="#F7931A">/work</text>
    <text x="65" y="42" text-anchor="middle" font-family="'SF Mono', monospace" font-size="10" fill="#EA580C">--parallel 5</text>
  </g>

  <!-- Fan-out -->
  <g stroke="#F7931A" stroke-width="1" opacity="0.2" stroke-dasharray="4 3">
    <path d="M150 120 Q200 120 210 50"/>
    <path d="M150 128 Q200 128 210 100"/>
    <path d="M150 136 Q200 136 210 145"/>
    <path d="M150 136 Q200 142 210 190"/>
    <path d="M150 140 Q200 148 210 236"/>
  </g>

  <!-- Worker 1 -->
  <g filter="url(#shPe)" transform="translate(210, 20)">
    <rect x="0" y="0" width="220" height="44" rx="7" fill="#fafafa" stroke="#e2e8f0" stroke-width="1"/>
    <circle cx="22" cy="22" r="12" fill="#FFF7ED" stroke="#FDBA74" stroke-width="0.8"/>
    <circle cx="22" cy="18" r="4" fill="none" stroke="#F7931A" stroke-width="1"/>
    <path d="M14 28 Q14 24 22 22 Q30 24 30 28" fill="none" stroke="#F7931A" stroke-width="1" opacity="0.5"/>
    <text x="42" y="18" font-family="-apple-system, 'Hiragino Sans', sans-serif" font-size="10" font-weight="600" fill="#1e293b">Worker 1</text>
    <text x="42" y="32" font-family="monospace" font-size="8" fill="#94a3b8">auth/login.ts</text>
    <rect x="145" y="16" width="60" height="6" rx="3" fill="#e2e8f0"/>
    <rect x="145" y="16" width="48" height="6" rx="3" fill="#F7931A" opacity="0.6"/>
    <text x="155" y="35" font-family="monospace" font-size="7" fill="#16a34a">Done</text>
  </g>

  <!-- Worker 2 -->
  <g filter="url(#shPe)" transform="translate(210, 72)">
    <rect x="0" y="0" width="220" height="44" rx="7" fill="#fafafa" stroke="#e2e8f0" stroke-width="1"/>
    <circle cx="22" cy="22" r="12" fill="#FFF7ED" stroke="#FDBA74" stroke-width="0.8"/>
    <circle cx="22" cy="18" r="4" fill="none" stroke="#EA580C" stroke-width="1"/>
    <path d="M14 28 Q14 24 22 22 Q30 24 30 28" fill="none" stroke="#EA580C" stroke-width="1" opacity="0.5"/>
    <text x="42" y="18" font-family="-apple-system, 'Hiragino Sans', sans-serif" font-size="10" font-weight="600" fill="#1e293b">Worker 2</text>
    <text x="42" y="32" font-family="monospace" font-size="8" fill="#94a3b8">api/endpoints.ts</text>
    <rect x="145" y="16" width="60" height="6" rx="3" fill="#e2e8f0"/>
    <rect x="145" y="16" width="40" height="6" rx="3" fill="#EA580C" opacity="0.6"/>
    <text x="155" y="35" font-family="monospace" font-size="7" fill="#D97706">Reviewing</text>
  </g>

  <!-- Worker 3 -->
  <g filter="url(#shPe)" transform="translate(210, 124)">
    <rect x="0" y="0" width="220" height="44" rx="7" fill="#fafafa" stroke="#e2e8f0" stroke-width="1"/>
    <circle cx="22" cy="22" r="12" fill="#FFF7ED" stroke="#FDBA74" stroke-width="0.8"/>
    <circle cx="22" cy="18" r="4" fill="none" stroke="#D97706" stroke-width="1"/>
    <path d="M14 28 Q14 24 22 22 Q30 24 30 28" fill="none" stroke="#D97706" stroke-width="1" opacity="0.5"/>
    <text x="42" y="18" font-family="-apple-system, 'Hiragino Sans', sans-serif" font-size="10" font-weight="600" fill="#1e293b">Worker 3</text>
    <text x="42" y="32" font-family="monospace" font-size="8" fill="#94a3b8">db/migrations.ts</text>
    <rect x="145" y="16" width="60" height="6" rx="3" fill="#e2e8f0"/>
    <rect x="145" y="16" width="30" height="6" rx="3" fill="#D97706" opacity="0.6"/>
    <text x="155" y="35" font-family="monospace" font-size="7" fill="#B45309">Coding</text>
  </g>

  <!-- Worker 4 -->
  <g filter="url(#shPe)" transform="translate(210, 176)">
    <rect x="0" y="0" width="220" height="44" rx="7" fill="#fafafa" stroke="#e2e8f0" stroke-width="1"/>
    <circle cx="22" cy="22" r="12" fill="#FFF7ED" stroke="#FDBA74" stroke-width="0.8"/>
    <circle cx="22" cy="18" r="4" fill="none" stroke="#B45309" stroke-width="1"/>
    <path d="M14 28 Q14 24 22 22 Q30 24 30 28" fill="none" stroke="#B45309" stroke-width="1" opacity="0.5"/>
    <text x="42" y="18" font-family="-apple-system, 'Hiragino Sans', sans-serif" font-size="10" font-weight="600" fill="#1e293b">Worker 4</text>
    <text x="42" y="32" font-family="monospace" font-size="8" fill="#94a3b8">ui/components.tsx</text>
    <rect x="145" y="16" width="60" height="6" rx="3" fill="#e2e8f0"/>
    <rect x="145" y="16" width="55" height="6" rx="3" fill="#B45309" opacity="0.6"/>
    <text x="155" y="35" font-family="monospace" font-size="7" fill="#16a34a">Done</text>
  </g>

  <!-- Worker 5 -->
  <g filter="url(#shPe)" transform="translate(210, 228)">
    <rect x="0" y="0" width="220" height="44" rx="7" fill="#fafafa" stroke="#e2e8f0" stroke-width="1"/>
    <circle cx="22" cy="22" r="12" fill="#FFF7ED" stroke="#FDBA74" stroke-width="0.8"/>
    <circle cx="22" cy="18" r="4" fill="none" stroke="#92400E" stroke-width="1"/>
    <path d="M14 28 Q14 24 22 22 Q30 24 30 28" fill="none" stroke="#92400E" stroke-width="1" opacity="0.5"/>
    <text x="42" y="18" font-family="-apple-system, 'Hiragino Sans', sans-serif" font-size="10" font-weight="600" fill="#1e293b">Worker 5</text>
    <text x="42" y="32" font-family="monospace" font-size="8" fill="#94a3b8">tests/e2e.spec.ts</text>
    <rect x="145" y="16" width="60" height="6" rx="3" fill="#e2e8f0"/>
    <rect x="145" y="16" width="18" height="6" rx="3" fill="#92400E" opacity="0.6"/>
    <text x="155" y="35" font-family="monospace" font-size="7" fill="#B45309">Coding</text>
  </g>

  <!-- Fan-in -->
  <g stroke="#F7931A" stroke-width="1" opacity="0.2" stroke-dasharray="4 3">
    <path d="M430 42 Q470 42 490 120"/>
    <path d="M430 94 Q470 94 490 125"/>
    <path d="M430 146 Q470 146 490 135"/>
    <path d="M430 198 Q470 198 490 148"/>
    <path d="M430 250 Q470 250 490 155"/>
  </g>

  <!-- Result -->
  <g filter="url(#shPe)" transform="translate(490, 108)">
    <rect x="0" y="0" width="130" height="56" rx="8" fill="#dcfce7" stroke="#86efac" stroke-width="1"/>
    <path d="M52 18 L60 26 L76 10" fill="none" stroke="#16a34a" stroke-width="2.5" stroke-linecap="round" stroke-linejoin="round"/>
    <text x="65" y="48" text-anchor="middle" font-family="-apple-system, 'Hiragino Sans', sans-serif" font-size="10" fill="#15803d">All tasks complete</text>
  </g>
</svg>