<svg xmlns="http://www.w3.org/2000/svg" viewBox="0 0 700 160" fill="none">
  <defs>
    <filter id="shWf"><feDropShadow dx="0" dy="2" stdDeviation="3" flood-color="#94a3b8" flood-opacity="0.1"/></filter>
  </defs>
  <rect width="700" height="160" rx="12" fill="#ffffff"/>
  <rect width="700" height="160" rx="12" fill="none" stroke="#e2e8f0" stroke-width="1"/>

  <!-- Pipeline line -->
  <line x1="120" y1="70" x2="580" y2="70" stroke="#F7931A" stroke-width="2" opacity="0.1"/>

  <!-- Input: /work all -->
  <g filter="url(#shWf)" transform="translate(16, 42)">
    <rect x="0" y="0" width="100" height="56" rx="10" fill="#FFF7ED" stroke="#FDBA74" stroke-width="1"/>
    <text x="50" y="26" text-anchor="middle" font-family="'SF Mono', monospace" font-size="14" font-weight="800" fill="#F7931A">/work</text>
    <text x="50" y="42" text-anchor="middle" font-family="'SF Mono', monospace" font-size="12" font-weight="700" fill="#EA580C">all</text>
  </g>

  <!-- Arrow 1 -->
  <path d="M120 70 L148 70" stroke="#F7931A" stroke-width="1.5" opacity="0.4"/>
  <polygon points="146,66 154,70 146,74" fill="#F7931A" opacity="0.5"/>

  <!-- Step 1: Plan -->
  <g filter="url(#shWf)" transform="translate(156, 46)">
    <rect x="0" y="0" width="92" height="48" rx="8" fill="#fafafa" stroke="#e2e8f0" stroke-width="1"/>
    <circle cx="20" cy="24" r="10" fill="#FFF7ED" stroke="#FDBA74" stroke-width="0.5"/>
    <text x="20" y="28" text-anchor="middle" font-family="sans-serif" font-size="11" font-weight="700" fill="#F7931A">1</text>
    <text x="56" y="20" text-anchor="middle" font-family="-apple-system, sans-serif" font-size="10" font-weight="600" fill="#1e293b">Plan</text>
    <text x="56" y="34" text-anchor="middle" font-family="-apple-system, sans-serif" font-size="7.5" fill="#94a3b8">Auto-generate</text>
  </g>

  <!-- Arrow 2 -->
  <path d="M252 70 L278 70" stroke="#F7931A" stroke-width="1.5" opacity="0.4"/>
  <polygon points="276,66 284,70 276,74" fill="#F7931A" opacity="0.5"/>

  <!-- Step 2: Work -->
  <g filter="url(#shWf)" transform="translate(286, 46)">
    <rect x="0" y="0" width="92" height="48" rx="8" fill="#fafafa" stroke="#e2e8f0" stroke-width="1"/>
    <circle cx="20" cy="24" r="10" fill="#FFF7ED" stroke="#FDBA74" stroke-width="0.5"/>
    <text x="20" y="28" text-anchor="middle" font-family="sans-serif" font-size="11" font-weight="700" fill="#EA580C">2</text>
    <text x="56" y="20" text-anchor="middle" font-family="-apple-system, sans-serif" font-size="10" font-weight="600" fill="#1e293b">Work</text>
    <text x="56" y="34" text-anchor="middle" font-family="-apple-system, sans-serif" font-size="7.5" fill="#94a3b8">Parallel x5</text>
    <g transform="translate(70, 38)" opacity="0.4">
      <line x1="0" y1="0" x2="0" y2="6" stroke="#F7931A" stroke-width="1"/>
      <line x1="4" y1="0" x2="4" y2="6" stroke="#F7931A" stroke-width="1"/>
      <line x1="8" y1="0" x2="8" y2="6" stroke="#F7931A" stroke-width="1"/>
    </g>
  </g>

  <!-- Arrow 3 -->
  <path d="M382 70 L408 70" stroke="#F7931A" stroke-width="1.5" opacity="0.4"/>
  <polygon points="406,66 414,70 406,74" fill="#F7931A" opacity="0.5"/>

  <!-- Step 3: Review -->
  <g filter="url(#shWf)" transform="translate(416, 46)">
    <rect x="0" y="0" width="92" height="48" rx="8" fill="#fafafa" stroke="#e2e8f0" stroke-width="1"/>
    <circle cx="20" cy="24" r="10" fill="#FFF7ED" stroke="#FDBA74" stroke-width="0.5"/>
    <text x="20" y="28" text-anchor="middle" font-family="sans-serif" font-size="11" font-weight="700" fill="#D97706">3</text>
    <text x="56" y="20" text-anchor="middle" font-family="-apple-system, sans-serif" font-size="10" font-weight="600" fill="#1e293b">Review</text>
    <text x="56" y="34" text-anchor="middle" font-family="-apple-system, sans-serif" font-size="7.5" fill="#94a3b8">Quality gate</text>
  </g>

  <!-- Arrow 4 -->
  <path d="M512 70 L538 70" stroke="#F7931A" stroke-width="1.5" opacity="0.4"/>
  <polygon points="536,66 544,70 536,74" fill="#F7931A" opacity="0.5"/>

  <!-- Step 4: Commit -->
  <g filter="url(#shWf)" transform="translate(546, 46)">
    <rect x="0" y="0" width="92" height="48" rx="8" fill="#fafafa" stroke="#e2e8f0" stroke-width="1"/>
    <circle cx="20" cy="24" r="10" fill="#FFF7ED" stroke="#FDBA74" stroke-width="0.5"/>
    <text x="20" y="28" text-anchor="middle" font-family="sans-serif" font-size="11" font-weight="700" fill="#B45309">4</text>
    <text x="56" y="20" text-anchor="middle" font-family="-apple-system, sans-serif" font-size="10" font-weight="600" fill="#1e293b">Commit</text>
    <text x="56" y="34" text-anchor="middle" font-family="-apple-system, sans-serif" font-size="7.5" fill="#94a3b8">Auto</text>
  </g>

  <!-- Result check -->
  <g transform="translate(650, 58)">
    <circle cx="0" cy="0" r="14" fill="#dcfce7" stroke="#86efac" stroke-width="1"/>
    <path d="M-6 0 L-2 4 L6 -4" fill="none" stroke="#16a34a" stroke-width="2.5" stroke-linecap="round" stroke-linejoin="round"/>
  </g>

  <!-- Bottom label -->
  <text x="350" y="132" text-anchor="middle" font-family="-apple-system, 'Hiragino Sans', sans-serif" font-size="10" fill="#64748b">One command replaces 4. Plan -> Parallel Work -> Review -> Auto-commit.</text>
</svg>